<svg xmlns="http://www.w3.org/2000/svg" viewBox="0 0 165.7 35.27"><defs><style>.a{fill:#28234a;}.b{fill:#ea43c8;}</style></defs><path class="a" d="M16.13,35.27q4,0,5-2.07a7,7,0,0,0,.49-2.85V17.5H11.54v2.19h7.38v12.9a.52.52,0,0,1-.38.39H3.06a.52.52,0,0,1-.38-.39V2.68a.49.49,0,0,1,.38-.38h18V0H5.47q-4,0-5,2.08A7,7,0,0,0,0,4.92V30.35c0,2.44.82,4,2.46,4.54a9.63,9.63,0,0,0,3,.38Zm31.12-33a.49.49,0,0,1,.38.38V32.59a.52.52,0,0,1-.38.39h-16a.53.53,0,0,1-.39-.39V2.68a.5.5,0,0,1,.39-.38ZM28.16,30.35c0,2.44.82,4,2.47,4.54a9.52,9.52,0,0,0,3,.38H44.84c2.67,0,4.32-.69,5-2.07a7,7,0,0,0,.49-2.85V4.92q0-3.66-2.46-4.54a9.9,9.9,0,0,0-3-.38H33.63q-4,0-5,2.08a7,7,0,0,0-.5,2.84ZM77.93,35h5.74V.27H76.73V21.11L62.56.27H56.88V35h6.94V14.16Zm31.66-20.56H98.33V7.33h12.36V.27H90.23V35h8.1V21.38h11.26ZM127.48,35V7.33h7.87V.27H111.51V7.33h7.87V35Zm27.23,0V22.91a5.08,5.08,0,0,0,3.45-2.62,29.65,29.65,0,0,0,1.31-3.06l6.23-17h-8l-5.25,15.15a.91.91,0,0,1-.87.71h-1.15a1,1,0,0,1-.87-.71L144.38.27H135.9l6,16.9c.92,2.52,2,4.16,3.18,4.92a5.49,5.49,0,0,0,1.53.66V35Z"/><path class="b" d="M45,16.63a1,1,0,0,1,0,1.74L36.7,23.13a1,1,0,0,1-1.5-.87V12.74a1,1,0,0,1,1.5-.87Z"/></svg>